<?xml version="1.0" encoding="UTF-8"?>
<svg id="Layer_2" xmlns="http://www.w3.org/2000/svg" viewBox="0 0 48.38 9.54">
  <defs>
    <style>
      .cls-1 {
        fill: #fff;
      }
    </style>
  </defs>
  <g id="Layer_1-2" data-name="Layer_1">
    <g id="Residential_-_Black">
      <g>
        <rect class="cls-1" width="48.38" height="9.54"/>
        <g>
          <path d="M18.98,7.39h.69c.39,0,.6.17.6.49,0,.24-.15.36-.29.41.21.06.35.22.35.46,0,.32-.24.51-.61.51h-.74v-1.86ZM19.64,8.19c.25,0,.39-.1.39-.29s-.14-.3-.39-.3h-.43v.59h.43ZM19.22,9.04h.49c.25,0,.38-.13.38-.32s-.13-.32-.38-.32h-.49v.64Z"/>
          <path d="M21.45,7.39l.72,1.86h-.25l-.19-.49h-.83l-.19.49h-.25l.72-1.86h.27ZM20.97,8.55h.67l-.34-.87-.33.87Z"/>
          <path d="M23.37,7.39h.26l-.67,1.08v.78h-.25v-.78l-.67-1.08h.27l.53.85.53-.85Z"/>
          <path d="M23.77,8.71c.12.22.33.35.57.35s.43-.12.43-.33c0-.23-.22-.26-.5-.33-.29-.07-.58-.15-.58-.5,0-.33.28-.54.64-.54.32,0,.56.16.67.37l-.19.15c-.1-.18-.24-.3-.49-.3-.23,0-.39.12-.39.3,0,.2.17.24.44.3.31.07.65.14.65.53,0,.35-.31.57-.68.57-.32,0-.63-.16-.76-.41l.19-.16Z"/>
          <path d="M25.55,9.25h-.25v-1.86h.25v1.86Z"/>
          <path d="M25.96,7.39h.59c.57,0,.92.36.92.93s-.36.93-.92.93h-.59v-1.86ZM26.55,9.04c.42,0,.68-.28.68-.72s-.26-.72-.68-.72h-.35v1.43h.35Z"/>
          <path d="M29,7.39v.22h-.97v.57h.82v.22h-.82v.64h.97v.22h-1.22v-1.86h1.22Z"/>
        </g>
        <g>
          <path d="M3.71.68v.85H1.37v1.07h1.96v.84h-1.96v1.19h2.34v.85H.4V.68h3.31Z"/>
          <path d="M4.32.68h.98v3.94h2.2v.85h-3.18V.68Z"/>
          <path d="M10.02,5.47l-1.15-3.51v3.51h-.92V.68h1.36l1.11,3.41,1.1-3.41h1.34v4.79h-.93V1.96l-1.15,3.51h-.75Z"/>
          <path d="M17.44,4.68c.52,0,.9-.33,1.03-.86l.92.31c-.28.87-.96,1.41-1.95,1.41-1.29,0-2.23-1.02-2.23-2.47s.94-2.47,2.23-2.47c.99,0,1.67.55,1.95,1.41l-.92.31c-.13-.53-.51-.86-1.03-.86-.73,0-1.25.63-1.25,1.61s.51,1.61,1.25,1.61Z"/>
          <path d="M19.85.68h.98v3.94h2.2v.85h-3.18V.68Z"/>
          <path d="M26.79.68v.85h-2.34v1.07h1.96v.84h-1.96v1.19h2.34v.85h-3.31V.68h3.31Z"/>
          <path d="M29.94.68l1.79,4.79h-.99l-.38-1.03h-1.97l-.38,1.03h-.97l1.79-4.79h1.12ZM28.69,3.61h1.35l-.68-1.84-.67,1.84Z"/>
          <path d="M36.17,5.47h-.85l-2.24-3.3v3.3h-.94V.68h.99l2.1,3.14V.68h.94v4.79Z"/>
          <path d="M37.92,5.47h-.98V.68h.98v4.79Z"/>
          <path d="M42.72,5.47h-.85l-2.24-3.3v3.3h-.94V.68h.99l2.1,3.14V.68h.94v4.79Z"/>
          <path d="M46.68,5.01c-.19.3-.65.53-1.25.53-1.25,0-2.18-1-2.18-2.44s.94-2.49,2.25-2.49c1.02,0,1.69.54,1.99,1.4l-.94.31c-.13-.54-.49-.85-1.03-.85-.75,0-1.27.64-1.27,1.61s.52,1.63,1.29,1.63c.62,0,1.03-.43,1.07-1.02h-1.16v-.83h2.12v2.61h-.88v-.46Z"/>
        </g>
      </g>
    </g>
  </g>
</svg>