<?xml version="1.0" encoding="UTF-8"?>
<svg id="Layer_2" xmlns="http://www.w3.org/2000/svg" viewBox="0 0 490.02 22.51">
  <defs>
    <style>
      .cls-1 {
        fill: #001954;
      }

      .cls-2 {
        fill: #fff;
      }
    </style>
  </defs>
  <g id="Layer_2-2" data-name="Layer_2">
    <g id="E-mail">
      <g id="Slogan">
        <rect class="cls-2" width="490.02" height="22.51"/>
        <g>
          <path class="cls-1" d="M6.46,13.54h-2.51v4.26H1.49V5.95h5.16c1.18,0,2.13.3,2.84.91s1.06,1.55,1.06,2.84c0,1.4-.36,2.39-1.06,2.96s-1.72.86-3.03.86h0ZM7.62,11.08c.32-.28.48-.73.48-1.35s-.16-1.05-.49-1.32c-.32-.26-.78-.39-1.36-.39h-2.3v3.49h2.3c.58,0,1.04-.14,1.36-.42h0Z"/>
          <path class="cls-1" d="M16.62,11.15c-.92,0-1.54.3-1.85.9-.18.34-.26.86-.26,1.56v4.18h-2.3v-8.75h2.18v1.52c.36-.58.66-.99.92-1.19.43-.36.99-.54,1.67-.54h.11s.09,0,.2,0v2.35c-.14-.02-.27-.03-.39-.03h-.27v-.02Z"/>
          <path class="cls-1" d="M25.92,10.14c.74.93,1.11,2.02,1.11,3.29s-.37,2.39-1.11,3.3-1.86,1.37-3.37,1.37-2.62-.46-3.37-1.37-1.11-2.01-1.11-3.3.37-2.36,1.11-3.29,1.86-1.39,3.37-1.39,2.62.46,3.37,1.39ZM22.55,10.7c-.67,0-1.18.24-1.54.71-.36.47-.55,1.15-.55,2.03s.18,1.55.55,2.03c.36.48.87.71,1.54.71s1.18-.24,1.54-.71.54-1.16.54-2.03-.18-1.55-.54-2.03c-.36-.47-.87-.71-1.54-.71Z"/>
          <path class="cls-1" d="M32.77,5.89v1.86c-.13-.02-.35-.03-.65-.04-.3,0-.51.06-.63.2-.11.14-.17.3-.17.47v.74h1.5v1.62h-1.5v7.06h-2.28v-7.06h-1.28v-1.62h1.25v-.56c0-.94.16-1.58.47-1.94.33-.53,1.14-.79,2.4-.79.14,0,.27,0,.39,0,.11,0,.28.02.48.04h.02Z"/>
          <path class="cls-1" d="M41.64,15.22c-.06.52-.33,1.04-.81,1.58-.75.86-1.8,1.28-3.15,1.28-1.11,0-2.1-.36-2.95-1.08-.86-.71-1.28-1.88-1.28-3.51,0-1.51.39-2.68,1.16-3.49s1.77-1.21,2.99-1.21c.73,0,1.38.14,1.96.41s1.06.71,1.45,1.3c.34.52.56,1.12.67,1.81.06.4.08.98.08,1.74h-5.99c.03.87.31,1.49.83,1.85.32.22.7.33,1.14.33.47,0,.86-.13,1.15-.4.16-.14.3-.35.42-.6,0,0,2.34,0,2.34,0ZM39.37,12.54c-.04-.6-.22-1.06-.55-1.38-.33-.31-.74-.47-1.22-.47-.53,0-.94.17-1.23.5-.29.33-.47.78-.55,1.35h3.56-.02Z"/>
          <path class="cls-1" d="M49.33,9.44c.69.44,1.08,1.19,1.18,2.27h-2.29c-.03-.29-.11-.53-.24-.7-.25-.31-.68-.47-1.29-.47-.5,0-.86.08-1.06.24-.22.16-.32.34-.32.55,0,.26.11.45.34.57s1.02.34,2.39.63c.91.22,1.6.54,2.05.97.45.44.68.99.68,1.65,0,.86-.32,1.58-.97,2.12s-1.65.83-2.99.83-2.39-.29-3.05-.87-.99-1.33-.99-2.22h2.32c.05.4.15.7.31.86.28.3.81.46,1.57.46.45,0,.81-.07,1.07-.2s.39-.34.39-.6-.1-.45-.32-.58-1.01-.37-2.39-.7c-.99-.24-1.69-.55-2.1-.92s-.61-.89-.61-1.57c0-.81.32-1.5.95-2.09s1.52-.87,2.68-.87,1.98.22,2.68.65Z"/>
          <path class="cls-1" d="M58.48,9.44c.69.44,1.08,1.19,1.18,2.27h-2.29c-.03-.29-.11-.53-.24-.7-.25-.31-.68-.47-1.29-.47-.5,0-.86.08-1.06.24-.22.16-.32.34-.32.55,0,.26.11.45.34.57s1.02.34,2.39.63c.91.22,1.6.54,2.05.97.45.44.68.99.68,1.65,0,.86-.32,1.58-.97,2.12s-1.65.83-2.99.83-2.39-.29-3.05-.87-.99-1.33-.99-2.22h2.32c.05.4.15.7.31.86.28.3.81.46,1.57.46.45,0,.81-.07,1.07-.2s.39-.34.39-.6-.1-.45-.32-.58-1.01-.37-2.39-.7c-.99-.24-1.69-.55-2.1-.92s-.61-.89-.61-1.57c0-.81.32-1.5.95-2.09s1.52-.87,2.68-.87,1.98.22,2.68.65Z"/>
          <path class="cls-1" d="M63.95,5.89v2.12h-2.32v-2.12h2.32ZM63.95,9.03v8.75h-2.32v-8.75h2.32Z"/>
          <path class="cls-1" d="M73.47,10.14c.74.93,1.11,2.02,1.11,3.29s-.37,2.39-1.11,3.3-1.86,1.37-3.37,1.37-2.62-.46-3.37-1.37-1.11-2.01-1.11-3.3.37-2.36,1.11-3.29,1.86-1.39,3.37-1.39,2.62.46,3.37,1.39ZM70.1,10.7c-.67,0-1.18.24-1.54.71-.36.47-.55,1.15-.55,2.03s.18,1.55.55,2.03c.36.48.87.71,1.54.71s1.18-.24,1.54-.71.54-1.16.54-2.03-.18-1.55-.54-2.03c-.36-.47-.87-.71-1.54-.71Z"/>
          <path class="cls-1" d="M80.34,10.74c-.78,0-1.31.33-1.6.99-.15.35-.23.79-.23,1.34v4.74h-2.28v-8.74h2.21v1.28c.29-.45.57-.77.84-.97.47-.36,1.07-.53,1.8-.53.9,0,1.65.24,2.22.71.57.47.86,1.26.86,2.36v5.89h-2.35v-5.33c0-.46-.07-.82-.19-1.06-.23-.45-.66-.68-1.29-.68h0Z"/>
          <path class="cls-1" d="M86.6,9.98c.6-.77,1.65-1.16,3.12-1.16.96,0,1.81.19,2.56.57.74.38,1.12,1.1,1.12,2.15v4.01c0,.28,0,.62.02,1.02.02.3.07.51.14.61.08.1.19.2.34.26v.34h-2.49c-.07-.18-.12-.34-.14-.5-.03-.16-.05-.33-.07-.53-.32.34-.68.63-1.09.87-.49.28-1.05.42-1.67.42-.79,0-1.45-.23-1.96-.68s-.78-1.09-.78-1.93c0-1.07.41-1.85,1.25-2.34.45-.26,1.13-.45,2.01-.56l.78-.09c.42-.06.72-.12.91-.2.33-.14.49-.36.49-.65,0-.36-.12-.61-.38-.74-.25-.14-.61-.21-1.1-.21-.55,0-.92.13-1.15.4-.16.2-.27.47-.32.8h-2.21c.05-.76.26-1.39.64-1.89h-.02ZM88.3,16.14c.22.18.48.26.79.26.49,0,.95-.14,1.36-.43s.63-.82.65-1.58v-.86c-.14.09-.29.17-.44.23-.15.06-.35.11-.61.16l-.52.09c-.48.08-.83.19-1.03.31-.36.21-.53.54-.53.97,0,.39.11.67.33.85Z"/>
          <path class="cls-1" d="M95.46,5.95h2.29v11.85h-2.29V5.95Z"/>
          <path class="cls-1" d="M113.1,16.91c-.88.81-2.01,1.21-3.39,1.21-1.7,0-3.05-.55-4.01-1.64-.98-1.1-1.46-2.6-1.46-4.51,0-2.07.55-3.66,1.66-4.78.97-.98,2.19-1.47,3.68-1.47,1.99,0,3.45.66,4.37,1.96.51.73.78,1.47.82,2.21h-2.47c-.16-.56-.37-1-.62-1.29-.45-.52-1.12-.77-2-.77s-1.61.37-2.12,1.09-.78,1.75-.78,3.08.27,2.32.83,2.98c.55.66,1.25,1,2.1,1s1.53-.28,1.98-.86c.25-.31.46-.76.63-1.37h2.45c-.22,1.29-.76,2.34-1.64,3.15h-.02Z"/>
          <path class="cls-1" d="M116.5,5.95h2.29v11.85h-2.29V5.95Z"/>
          <path class="cls-1" d="M128.51,15.22c-.06.52-.33,1.04-.81,1.58-.75.86-1.8,1.28-3.15,1.28-1.12,0-2.1-.36-2.95-1.08-.86-.71-1.28-1.88-1.28-3.51,0-1.51.39-2.68,1.16-3.49.77-.81,1.77-1.21,2.99-1.21.72,0,1.38.14,1.96.41s1.06.71,1.45,1.3c.34.52.56,1.12.67,1.81.06.4.08.98.08,1.74h-6c.03.87.31,1.49.83,1.85.32.22.7.33,1.14.33.47,0,.86-.13,1.15-.4.16-.14.3-.35.42-.6h2.35ZM126.24,12.54c-.04-.6-.23-1.06-.55-1.38-.33-.31-.73-.47-1.22-.47-.53,0-.94.17-1.23.5-.29.33-.48.78-.55,1.35h3.56,0Z"/>
          <path class="cls-1" d="M130.49,9.98c.6-.77,1.65-1.16,3.12-1.16.96,0,1.81.19,2.56.57.74.38,1.12,1.1,1.12,2.15v4.01c0,.28,0,.62.02,1.02.02.3.07.51.14.61.08.1.19.2.34.26v.34h-2.49c-.07-.18-.12-.34-.14-.5-.03-.16-.05-.33-.07-.53-.32.34-.68.63-1.09.87-.49.28-1.05.42-1.67.42-.79,0-1.45-.23-1.96-.68s-.78-1.09-.78-1.93c0-1.07.41-1.85,1.25-2.34.45-.26,1.13-.45,2.01-.56l.78-.09c.42-.06.72-.12.91-.2.33-.14.49-.36.49-.65,0-.36-.12-.61-.38-.74-.25-.14-.61-.21-1.1-.21-.55,0-.92.13-1.15.4-.16.2-.27.47-.32.8h-2.21c.05-.76.26-1.39.64-1.89h-.02ZM132.2,16.14c.22.18.48.26.79.26.49,0,.95-.14,1.36-.43s.63-.82.65-1.58v-.86c-.14.09-.29.17-.44.23-.15.06-.35.11-.61.16l-.52.09c-.48.08-.83.19-1.03.31-.36.21-.53.54-.53.97,0,.39.11.67.33.85Z"/>
          <path class="cls-1" d="M143.44,10.74c-.78,0-1.31.33-1.6.99-.15.35-.23.79-.23,1.34v4.74h-2.28v-8.74h2.21v1.28c.29-.45.57-.77.84-.97.47-.36,1.07-.53,1.8-.53.9,0,1.65.24,2.22.71.57.47.86,1.26.86,2.36v5.89h-2.35v-5.33c0-.46-.07-.82-.19-1.06-.23-.45-.66-.68-1.29-.68h0Z"/>
          <path class="cls-1" d="M149.33,15.4h2.44v2.4h-2.44v-2.4Z"/>
          <path class="cls-1" d="M163.72,13.54h-2.51v4.26h-2.46V5.95h5.16c1.18,0,2.13.3,2.84.91s1.06,1.55,1.06,2.84c0,1.4-.36,2.39-1.06,2.96s-1.72.86-3.03.86h0ZM164.88,11.08c.32-.28.48-.73.48-1.35s-.16-1.05-.49-1.32c-.32-.26-.78-.39-1.36-.39h-2.3v3.49h2.3c.58,0,1.04-.14,1.36-.42h0Z"/>
          <path class="cls-1" d="M176.98,15.22c-.06.52-.33,1.04-.81,1.58-.75.86-1.8,1.28-3.15,1.28-1.12,0-2.1-.36-2.95-1.08-.86-.71-1.28-1.88-1.28-3.51,0-1.51.39-2.68,1.16-3.49.77-.81,1.77-1.21,2.99-1.21.72,0,1.38.14,1.96.41s1.06.71,1.45,1.3c.34.52.56,1.12.67,1.81.06.4.08.98.08,1.74h-6c.03.87.31,1.49.83,1.85.32.22.7.33,1.14.33.47,0,.86-.13,1.15-.4.16-.14.3-.35.42-.6h2.35ZM174.71,12.54c-.04-.6-.23-1.06-.55-1.38-.33-.31-.73-.47-1.22-.47-.53,0-.94.17-1.23.5-.29.33-.48.78-.55,1.35h3.56,0Z"/>
          <path class="cls-1" d="M183.03,11.15c-.92,0-1.54.3-1.85.9-.18.34-.26.86-.26,1.56v4.18h-2.3v-8.75h2.18v1.52c.36-.58.66-.99.92-1.19.43-.36.99-.54,1.67-.54h.11s.09,0,.2,0v2.35c-.14-.02-.27-.03-.39-.03h-.27v-.02Z"/>
          <path class="cls-1" d="M191.07,9.44c.69.44,1.08,1.19,1.18,2.27h-2.29c-.03-.29-.11-.53-.24-.7-.25-.31-.68-.47-1.29-.47-.5,0-.86.08-1.06.24-.22.16-.32.34-.32.55,0,.26.11.45.34.57s1.02.34,2.39.63c.91.22,1.6.54,2.05.97.45.44.68.99.68,1.65,0,.86-.32,1.58-.97,2.12s-1.65.83-2.99.83-2.39-.29-3.05-.87-.99-1.33-.99-2.22h2.32c.05.4.15.7.31.86.28.3.81.46,1.57.46.45,0,.81-.07,1.07-.2s.39-.34.39-.6-.1-.45-.32-.58-1.01-.37-2.39-.7c-.99-.24-1.69-.55-2.1-.92s-.61-.89-.61-1.57c0-.81.32-1.5.95-2.09s1.52-.87,2.68-.87,1.98.22,2.68.65h0Z"/>
          <path class="cls-1" d="M201.49,10.14c.74.93,1.11,2.02,1.11,3.29s-.37,2.39-1.11,3.3-1.86,1.37-3.37,1.37-2.62-.46-3.37-1.37c-.74-.91-1.11-2.01-1.11-3.3s.37-2.36,1.11-3.29,1.86-1.39,3.37-1.39,2.62.46,3.37,1.39ZM198.11,10.7c-.67,0-1.18.24-1.54.71-.36.47-.55,1.15-.55,2.03s.18,1.55.55,2.03c.36.48.87.71,1.54.71s1.18-.24,1.54-.71.54-1.16.54-2.03-.18-1.55-.54-2.03c-.36-.47-.87-.71-1.54-.71Z"/>
          <path class="cls-1" d="M208.36,10.74c-.78,0-1.31.33-1.6.99-.15.35-.23.79-.23,1.34v4.74h-2.28v-8.74h2.21v1.28c.29-.45.57-.77.84-.97.47-.36,1.07-.53,1.8-.53.9,0,1.65.24,2.22.71.57.47.86,1.26.86,2.36v5.89h-2.35v-5.33c0-.46-.07-.82-.19-1.06-.23-.45-.66-.68-1.29-.68h0Z"/>
          <path class="cls-1" d="M214.61,9.98c.6-.77,1.65-1.16,3.12-1.16.96,0,1.81.19,2.56.57.74.38,1.12,1.1,1.12,2.15v4.01c0,.28,0,.62.02,1.02.02.3.06.51.13.61.08.1.19.2.34.26v.34h-2.49c-.07-.18-.11-.34-.14-.5s-.05-.33-.07-.53c-.32.34-.68.63-1.09.87-.49.28-1.05.42-1.67.42-.79,0-1.45-.23-1.96-.68s-.77-1.09-.77-1.93c0-1.07.41-1.85,1.24-2.34.45-.26,1.13-.45,2.01-.56l.78-.09c.42-.06.72-.12.9-.2.33-.14.49-.36.49-.65,0-.36-.12-.61-.38-.74-.24-.14-.61-.21-1.1-.21-.55,0-.92.13-1.15.4-.16.2-.27.47-.32.8h-2.21c.05-.76.26-1.39.64-1.89h0ZM216.32,16.14c.22.18.48.26.79.26.49,0,.95-.14,1.36-.43s.63-.82.65-1.58v-.86c-.14.09-.29.17-.44.23-.15.06-.35.11-.6.16l-.52.09c-.48.08-.83.19-1.03.31-.36.21-.53.54-.53.97,0,.39.11.67.33.85h0Z"/>
          <path class="cls-1" d="M223.49,5.95h2.29v11.85h-2.29V5.95Z"/>
          <path class="cls-1" d="M241.11,16.91c-.88.81-2.01,1.21-3.39,1.21-1.7,0-3.05-.55-4.01-1.64-.98-1.1-1.47-2.6-1.47-4.51,0-2.07.55-3.66,1.66-4.78.97-.98,2.19-1.47,3.68-1.47,1.99,0,3.45.66,4.37,1.96.51.73.78,1.47.82,2.21h-2.47c-.16-.56-.37-1-.62-1.29-.45-.52-1.12-.77-2-.77s-1.61.37-2.12,1.09-.78,1.75-.78,3.08.27,2.32.83,2.98c.55.66,1.25,1,2.1,1s1.53-.28,1.98-.86c.25-.31.46-.76.63-1.37h2.45c-.22,1.29-.76,2.34-1.64,3.15h0Z"/>
          <path class="cls-1" d="M244.79,9.98c.6-.77,1.65-1.16,3.12-1.16.96,0,1.81.19,2.56.57.74.38,1.12,1.1,1.12,2.15v4.01c0,.28,0,.62.02,1.02.02.3.07.51.13.61.08.1.19.2.34.26v.34h-2.49c-.07-.18-.12-.34-.14-.5-.03-.16-.05-.33-.07-.53-.32.34-.68.63-1.09.87-.49.28-1.05.42-1.67.42-.79,0-1.45-.23-1.96-.68s-.77-1.09-.77-1.93c0-1.07.41-1.85,1.24-2.34.45-.26,1.13-.45,2.01-.56l.78-.09c.42-.06.72-.12.91-.2.33-.14.49-.36.49-.65,0-.36-.12-.61-.38-.74-.24-.14-.61-.21-1.1-.21-.55,0-.92.13-1.15.4-.16.2-.27.47-.32.8h-2.21c.05-.76.26-1.39.64-1.89h0ZM246.49,16.14c.22.18.48.26.79.26.49,0,.95-.14,1.36-.43s.63-.82.65-1.58v-.86c-.14.09-.29.17-.43.23-.15.06-.35.11-.61.16l-.52.09c-.48.08-.83.19-1.03.31-.36.21-.53.54-.53.97,0,.39.11.67.33.85h0Z"/>
          <path class="cls-1" d="M258.01,11.15c-.92,0-1.54.3-1.85.9-.18.34-.26.86-.26,1.56v4.18h-2.3v-8.75h2.18v1.52c.36-.58.66-.99.92-1.19.43-.36.99-.54,1.67-.54h.11s.09,0,.2,0v2.35c-.14-.02-.27-.03-.39-.03h-.27v-.02Z"/>
          <path class="cls-1" d="M267.5,15.22c-.06.52-.33,1.04-.81,1.58-.75.86-1.8,1.28-3.15,1.28-1.12,0-2.1-.36-2.95-1.08-.86-.71-1.28-1.88-1.28-3.51,0-1.51.39-2.68,1.16-3.49s1.77-1.21,2.99-1.21c.72,0,1.38.14,1.96.41s1.06.71,1.45,1.3c.34.52.56,1.12.67,1.81.06.4.08.98.08,1.74h-6c.04.87.31,1.49.83,1.85.32.22.7.33,1.14.33.47,0,.86-.13,1.15-.4.16-.14.3-.35.42-.6h2.35ZM265.24,12.54c-.04-.6-.23-1.06-.55-1.38-.33-.31-.74-.47-1.22-.47-.53,0-.94.17-1.23.5-.29.33-.48.78-.55,1.35h3.56-.02Z"/>
          <path class="cls-1" d="M269.12,15.4h2.44v2.4h-2.44v-2.4Z"/>
          <path class="cls-1" d="M287.1,5.95v2.1h-3.54v9.75h-2.49v-9.75h-3.56v-2.1h9.6Z"/>
          <path class="cls-1" d="M296.26,12.65v5.14h-2.34v-5.33c0-.47-.08-.86-.24-1.14-.21-.4-.6-.61-1.18-.61s-1.06.21-1.38.61-.47.98-.47,1.73v4.74h-2.28V6h2.28v4.18c.33-.51.71-.86,1.16-1.06.43-.2.89-.3,1.37-.3.55,0,1.03.09,1.48.28s.81.47,1.09.86c.24.33.39.67.44,1.01.06.35.08.91.08,1.69h0Z"/>
          <path class="cls-1" d="M298.74,9.98c.6-.77,1.65-1.16,3.12-1.16.96,0,1.81.19,2.56.57.74.38,1.12,1.1,1.12,2.15v4.01c0,.28,0,.62.02,1.02.02.3.07.51.13.61.08.1.19.2.34.26v.34h-2.49c-.07-.18-.12-.34-.14-.5-.03-.16-.05-.33-.07-.53-.32.34-.68.63-1.09.87-.49.28-1.05.42-1.67.42-.79,0-1.45-.23-1.96-.68s-.78-1.09-.78-1.93c0-1.07.41-1.85,1.24-2.34.45-.26,1.13-.45,2.01-.56l.78-.09c.42-.06.72-.12.91-.2.33-.14.49-.36.49-.65,0-.36-.12-.61-.38-.74-.24-.14-.61-.21-1.1-.21-.55,0-.92.13-1.15.4-.16.2-.27.47-.32.8h-2.21c.05-.76.26-1.39.64-1.89ZM300.44,16.14c.22.18.48.26.79.26.49,0,.95-.14,1.36-.43s.63-.82.65-1.58v-.86c-.14.09-.29.17-.43.23-.15.06-.35.11-.61.16l-.52.09c-.48.08-.83.19-1.03.31-.36.21-.53.54-.53.97,0,.39.11.67.33.85h0Z"/>
          <path class="cls-1" d="M311.56,16.16v1.71l-1.08.04c-1.08.04-1.82-.15-2.22-.56-.25-.26-.39-.67-.39-1.21v-5.39h-1.22v-1.63h1.22v-2.44h2.27v2.44h1.42v1.63h-1.42v4.63c0,.36.05.58.14.67.09.08.37.13.84.13h.23c.08,0,.15,0,.23,0h0Z"/>
          <path class="cls-1" d="M315.32,7.69c0,.81-.2,1.45-.59,1.91-.39.47-.95.77-1.65.91v-.85c.53-.17.88-.45,1.08-.85.1-.24.15-.47.14-.71h-1.26v-2.12h2.29v1.69h0Z"/>
          <path class="cls-1" d="M323.04,9.44c.69.44,1.08,1.19,1.18,2.27h-2.28c-.04-.29-.11-.53-.25-.7-.25-.31-.68-.47-1.29-.47-.5,0-.86.08-1.06.24-.22.16-.32.34-.32.55,0,.26.11.45.34.57s1.02.34,2.39.63c.91.22,1.59.54,2.05.97.45.44.68.99.68,1.65,0,.86-.32,1.58-.97,2.12s-1.65.83-2.99.83-2.39-.29-3.05-.87c-.66-.58-.99-1.33-.99-2.22h2.32c.05.4.15.7.31.86.28.3.81.46,1.57.46.45,0,.81-.07,1.07-.2.26-.13.39-.34.39-.6s-.1-.45-.32-.58-1.01-.37-2.39-.7c-.99-.24-1.69-.55-2.1-.92-.4-.37-.61-.89-.61-1.57,0-.81.32-1.5.95-2.09s1.52-.87,2.68-.87,1.98.22,2.68.65h0Z"/>
          <path class="cls-1" d="M339.15,12.63h-5.75v3.05h6.55v2.12h-8.97V5.95h8.69v2.1h-6.26v2.51h5.75v2.06h0Z"/>
          <path class="cls-1" d="M341.88,5.95h2.47v9.71h5.87v2.12h-8.34V5.95Z"/>
          <path class="cls-1" d="M354.2,17.8h-2.3V5.95h3.6l2.15,9.31,2.13-9.31h3.56v11.85h-2.3V7.86l-2.24,9.94h-2.4l-2.23-9.94v9.94h.02Z"/>
          <path class="cls-1" d="M367.73,7.69c0,.81-.2,1.45-.59,1.91-.39.47-.95.77-1.65.91v-.85c.53-.17.88-.45,1.08-.85.1-.24.15-.47.14-.71h-1.26v-2.12h2.29v1.69h0Z"/>
          <path class="cls-1" d="M375.45,9.44c.69.44,1.08,1.19,1.18,2.27h-2.28c-.04-.29-.11-.53-.25-.7-.25-.31-.68-.47-1.29-.47-.5,0-.86.08-1.06.24-.22.16-.32.34-.32.55,0,.26.11.45.34.57s1.02.34,2.39.63c.91.22,1.59.54,2.05.97.45.44.68.99.68,1.65,0,.86-.32,1.58-.97,2.12s-1.65.83-2.99.83-2.39-.29-3.05-.87c-.66-.58-.99-1.33-.99-2.22h2.32c.05.4.15.7.31.86.28.3.81.46,1.57.46.45,0,.81-.07,1.07-.2.26-.13.39-.34.39-.6s-.1-.45-.32-.58-1.01-.37-2.39-.7c-.99-.24-1.69-.55-2.1-.92-.4-.37-.61-.89-.61-1.57,0-.81.32-1.5.95-2.09s1.52-.87,2.68-.87,1.98.22,2.68.65h0Z"/>
          <path class="cls-1" d="M391.68,16.91c-.88.81-2.01,1.21-3.39,1.21-1.7,0-3.05-.55-4.01-1.64-.98-1.1-1.47-2.6-1.47-4.51,0-2.07.55-3.66,1.66-4.78.97-.98,2.19-1.47,3.68-1.47,1.99,0,3.45.66,4.37,1.96.51.73.78,1.47.82,2.21h-2.47c-.16-.56-.37-1-.62-1.29-.45-.52-1.12-.77-2-.77s-1.61.37-2.12,1.09-.78,1.75-.78,3.08.27,2.32.83,2.98c.55.66,1.25,1,2.1,1s1.53-.28,1.98-.86c.25-.31.46-.76.63-1.37h2.45c-.22,1.29-.76,2.34-1.64,3.15h0Z"/>
          <path class="cls-1" d="M402.32,10.14c.74.93,1.11,2.02,1.11,3.29s-.37,2.39-1.11,3.3c-.74.91-1.86,1.37-3.37,1.37s-2.62-.46-3.37-1.37c-.74-.91-1.11-2.01-1.11-3.3s.37-2.36,1.11-3.29c.74-.93,1.86-1.39,3.37-1.39s2.62.46,3.37,1.39ZM398.96,10.7c-.67,0-1.18.24-1.54.71-.36.47-.55,1.15-.55,2.03s.18,1.55.55,2.03c.36.48.87.71,1.54.71s1.18-.24,1.54-.71.54-1.16.54-2.03-.18-1.55-.54-2.03c-.36-.47-.87-.71-1.54-.71Z"/>
          <path class="cls-1" d="M409.99,11.45c-.2-.42-.57-.64-1.14-.64-.66,0-1.09.22-1.32.64-.12.24-.19.6-.19,1.08v5.27h-2.32v-8.74h2.23v1.28c.28-.45.55-.78.8-.97.44-.34,1.02-.52,1.73-.52.67,0,1.21.15,1.63.44.33.27.58.62.75,1.05.3-.52.67-.89,1.12-1.14.47-.24,1-.36,1.57-.36.39,0,.76.08,1.14.23s.71.41,1.02.79c.24.3.41.68.5,1.13.06.29.08.72.08,1.3l-.02,5.52h-2.35v-5.58c0-.33-.06-.6-.16-.82-.21-.4-.58-.61-1.13-.61-.63,0-1.07.26-1.31.79-.12.28-.19.61-.19,1.01v5.22h-2.3v-5.22c0-.52-.06-.89-.16-1.13l.03-.03Z"/>
          <path class="cls-1" d="M424.62,11.45c-.2-.42-.57-.64-1.14-.64-.66,0-1.09.22-1.32.64-.12.24-.19.6-.19,1.08v5.27h-2.32v-8.74h2.23v1.28c.28-.45.55-.78.8-.97.44-.34,1.02-.52,1.73-.52.67,0,1.21.15,1.63.44.33.27.58.62.75,1.05.3-.52.67-.89,1.12-1.14.47-.24,1-.36,1.57-.36.39,0,.76.08,1.14.23s.71.41,1.02.79c.24.3.41.68.5,1.13.06.29.08.72.08,1.3l-.02,5.52h-2.35v-5.58c0-.33-.06-.6-.16-.82-.21-.4-.58-.61-1.13-.61-.63,0-1.07.26-1.31.79-.12.28-.19.61-.19,1.01v5.22h-2.3v-5.22c0-.52-.06-.89-.16-1.13l.03-.03Z"/>
          <path class="cls-1" d="M436.68,5.89v2.12h-2.32v-2.12h2.32ZM436.68,9.03v8.75h-2.32v-8.75h2.32Z"/>
          <path class="cls-1" d="M442.91,16.16v1.71l-1.08.04c-1.08.04-1.82-.15-2.22-.56-.25-.26-.39-.67-.39-1.21v-5.39h-1.22v-1.63h1.22v-2.44h2.27v2.44h1.42v1.63h-1.42v4.63c0,.36.05.58.14.67.09.08.37.13.84.13h.23c.08,0,.15,0,.23,0h0Z"/>
          <path class="cls-1" d="M449.3,11.45c-.2-.42-.57-.64-1.14-.64-.66,0-1.09.22-1.32.64-.12.24-.19.6-.19,1.08v5.27h-2.32v-8.74h2.23v1.28c.28-.45.55-.78.8-.97.44-.34,1.02-.52,1.73-.52.67,0,1.21.15,1.63.44.33.27.58.62.75,1.05.3-.52.67-.89,1.12-1.14.47-.24,1-.36,1.57-.36.39,0,.76.08,1.14.23s.71.41,1.02.79c.24.3.41.68.5,1.13.06.29.08.72.08,1.3l-.02,5.52h-2.35v-5.58c0-.33-.06-.6-.16-.82-.21-.4-.58-.61-1.13-.61-.63,0-1.07.26-1.31.79-.12.28-.19.61-.19,1.01v5.22h-2.3v-5.22c0-.52-.06-.89-.16-1.13l.03-.03Z"/>
          <path class="cls-1" d="M466.51,15.22c-.06.52-.33,1.04-.81,1.58-.75.86-1.8,1.28-3.15,1.28-1.12,0-2.1-.36-2.95-1.08-.86-.71-1.28-1.88-1.28-3.51,0-1.51.39-2.68,1.16-3.49s1.77-1.21,2.99-1.21c.72,0,1.38.14,1.96.41s1.06.71,1.45,1.3c.34.52.56,1.12.67,1.81.06.4.08.98.08,1.74h-6c.04.87.31,1.49.83,1.85.32.22.7.33,1.14.33.47,0,.86-.13,1.15-.4.16-.14.3-.35.42-.6h2.35ZM464.24,12.54c-.04-.6-.23-1.06-.55-1.38-.33-.31-.74-.47-1.22-.47-.53,0-.94.17-1.23.5-.29.33-.48.78-.55,1.35h3.56-.02Z"/>
          <path class="cls-1" d="M472.28,10.74c-.78,0-1.31.33-1.6.99-.15.35-.23.79-.23,1.34v4.74h-2.28v-8.74h2.21v1.28c.29-.45.57-.77.84-.97.47-.36,1.07-.53,1.8-.53.9,0,1.65.24,2.22.71.57.47.86,1.26.86,2.36v5.89h-2.35v-5.33c0-.46-.07-.82-.19-1.06-.23-.45-.65-.68-1.29-.68h0Z"/>
          <path class="cls-1" d="M482.22,16.16v1.71l-1.08.04c-1.08.04-1.82-.15-2.22-.56-.25-.26-.39-.67-.39-1.21v-5.39h-1.22v-1.63h1.22v-2.44h2.27v2.44h1.42v1.63h-1.42v4.63c0,.36.05.58.14.67.09.08.37.13.84.13h.23c.08,0,.15,0,.23,0h0Z"/>
          <path class="cls-1" d="M483.65,15.4h2.44v2.4h-2.44v-2.4Z"/>
        </g>
      </g>
    </g>
  </g>
</svg>