<?xml version="1.0" encoding="UTF-8"?>
<svg id="Layer_2" xmlns="http://www.w3.org/2000/svg" viewBox="0 0 206.21 43.12">
  <defs>
    <style>
      .cls-1 {
        fill: #fff;
      }
    </style>
  </defs>
  <g id="Layer_1-2" data-name="Layer_1">
    <g id="Residential_-_Black">
      <g>
        <rect class="cls-1" width="206.21" height="43.12"/>
        <g>
          <path d="M80.88,32.21h2.94c1.68,0,2.58.74,2.58,2.07,0,1.02-.62,1.53-1.23,1.74.9.24,1.5.94,1.5,1.95,0,1.38-1.01,2.19-2.61,2.19h-3.17v-7.95ZM83.73,35.62c1.06,0,1.65-.41,1.65-1.25s-.59-1.26-1.65-1.26h-1.82v2.51h1.82ZM81.91,39.27h2.09c1.06,0,1.64-.55,1.64-1.37s-.58-1.36-1.64-1.36h-2.09v2.74Z"/>
          <path d="M91.41,32.21l3.07,7.95h-1.07l-.81-2.09h-3.57l-.8,2.09h-1.06l3.07-7.95h1.17ZM89.39,37.14h2.86l-1.44-3.73-1.42,3.73Z"/>
          <path d="M99.6,32.21h1.13l-2.88,4.61v3.35h-1.06v-3.35l-2.88-4.61h1.15l2.27,3.64,2.27-3.64Z"/>
          <path d="M101.32,37.86c.5.95,1.4,1.51,2.43,1.51s1.83-.51,1.83-1.42c0-.96-.92-1.13-2.13-1.42-1.25-.3-2.49-.64-2.49-2.14,0-1.4,1.21-2.3,2.71-2.3,1.38,0,2.38.67,2.86,1.56l-.81.64c-.41-.76-1.04-1.29-2.07-1.29-.96,0-1.66.53-1.66,1.3,0,.84.74,1.02,1.86,1.29,1.32.31,2.77.59,2.77,2.27,0,1.49-1.32,2.43-2.89,2.43-1.37,0-2.69-.69-3.24-1.76l.83-.67Z"/>
          <path d="M108.88,40.16h-1.06v-7.95h1.06v7.95Z"/>
          <path d="M110.63,32.21h2.53c2.41,0,3.94,1.55,3.94,3.98s-1.53,3.98-3.94,3.98h-2.53v-7.95ZM113.16,39.24c1.81,0,2.9-1.21,2.9-3.06s-1.1-3.06-2.91-3.06h-1.47v6.11h1.49Z"/>
          <path d="M123.59,32.21v.93h-4.14v2.45h3.51v.93h-3.51v2.71h4.14v.93h-5.2v-7.95h5.2Z"/>
        </g>
        <g>
          <path d="M15.81,3.61v3.61H5.83v4.55h8.35v3.58H5.83v5.06h9.97v3.61H1.71V3.61h14.09Z"/>
          <path d="M18.39,3.61h4.18v16.79h9.38v3.61h-13.55V3.61Z"/>
          <path d="M42.71,24.01l-4.92-14.94v14.94h-3.92V3.61h5.8l4.72,14.52,4.69-14.52h5.71v20.4h-3.98v-14.94l-4.92,14.94h-3.18Z"/>
          <path d="M74.33,20.66c2.22,0,3.84-1.39,4.4-3.67l3.92,1.31c-1.19,3.69-4.09,6.02-8.32,6.02-5.51,0-9.52-4.35-9.52-10.51s4.01-10.51,9.52-10.51c4.23,0,7.13,2.33,8.32,6.02l-3.92,1.31c-.57-2.27-2.19-3.67-4.4-3.67-3.13,0-5.31,2.7-5.31,6.85s2.19,6.85,5.31,6.85Z"/>
          <path d="M84.61,3.61h4.18v16.79h9.38v3.61h-13.55V3.61Z"/>
          <path d="M114.19,3.61v3.61h-9.97v4.55h8.35v3.58h-8.35v5.06h9.97v3.61h-14.09V3.61h14.09Z"/>
          <path d="M127.6,3.61l7.64,20.4h-4.23l-1.62-4.38h-8.41l-1.62,4.38h-4.15l7.61-20.4h4.77ZM122.28,16.09h5.77l-2.9-7.84-2.87,7.84Z"/>
          <path d="M154.16,24.01h-3.64l-9.55-14.06v14.06h-4.01V3.61h4.23l8.95,13.38V3.61h4.01v20.4Z"/>
          <path d="M161.63,24.01h-4.18V3.61h4.18v20.4Z"/>
          <path d="M182.08,24.01h-3.64l-9.55-14.06v14.06h-4.01V3.61h4.23l8.95,13.38V3.61h4.01v20.4Z"/>
          <path d="M198.96,22.05c-.82,1.28-2.76,2.27-5.31,2.27-5.34,0-9.29-4.26-9.29-10.4s4.01-10.63,9.57-10.63c4.35,0,7.19,2.3,8.47,5.97l-4.01,1.34c-.54-2.3-2.1-3.64-4.4-3.64-3.21,0-5.43,2.73-5.43,6.88s2.22,6.93,5.48,6.93c2.64,0,4.4-1.85,4.57-4.35h-4.94v-3.55h9.04v11.14h-3.75v-1.96Z"/>
        </g>
      </g>
    </g>
  </g>
</svg>